<?xml version="1.0" encoding="UTF-8" standalone="no"?><!-- Generator: Gravit.io --><svg xmlns="http://www.w3.org/2000/svg" xmlns:xlink="http://www.w3.org/1999/xlink" style="isolation:isolate" viewBox="0 0 12 13" width="12pt" height="13pt"><defs><clipPath id="_clipPath_9wxAmkuL9cHu3Wv5GuVHq6RKaPotjiLv"><rect width="12" height="13"/></clipPath></defs><g clip-path="url(#_clipPath_9wxAmkuL9cHu3Wv5GuVHq6RKaPotjiLv)"><path d=" M 2.229 6.172 L 8.513 6.118 C 8.678 6.119 8.835 6.187 8.948 6.307 C 9.065 6.43 9.13 6.593 9.13 6.763 C 9.133 7.122 8.861 7.415 8.525 7.418 L 2.065 7.474 L 3.217 8.652 C 3.33 8.769 3.394 8.925 3.395 9.088 C 3.396 9.252 3.335 9.409 3.224 9.525 C 3.116 9.641 2.965 9.708 2.806 9.709 C 2.647 9.71 2.495 9.647 2.384 9.532 L 0.266 7.367 C 0.152 7.251 0.088 7.095 0.087 6.932 C 0.085 6.77 0.146 6.613 0.257 6.494 L 2.34 4.293 C 2.449 4.177 2.6 4.111 2.759 4.109 C 2.917 4.108 3.07 4.172 3.18 4.286 C 3.294 4.403 3.358 4.558 3.359 4.721 C 3.36 4.886 3.299 5.043 3.188 5.159 L 2.229 6.172 Z  M 10.688 1.809 L 5.655 1.853 C 5.499 1.854 5.348 1.791 5.236 1.676 C 5.001 1.433 4.997 1.049 5.228 0.801 C 5.336 0.686 5.487 0.619 5.645 0.618 L 11.269 0.569 C 11.43 0.571 11.583 0.637 11.695 0.752 C 11.807 0.867 11.869 1.022 11.867 1.182 L 11.963 12.297 C 11.963 12.638 11.701 12.916 11.376 12.919 L 5.751 12.967 C 5.594 12.969 5.444 12.906 5.332 12.791 C 5.096 12.548 5.093 12.163 5.324 11.916 C 5.432 11.8 5.582 11.734 5.74 11.732 L 10.773 11.689 L 10.688 1.809 Z " fill="rgb(180,180,180)"/></g></svg>